<mxfile host="65bd71144e">
    <diagram id="req_flow" name="Requirements Flow">
        <mxGraphModel dx="1386" dy="784" grid="1" gridSize="10" guides="1" tooltips="1" connect="1" arrows="1" fold="1" page="1" pageScale="1" pageWidth="1100" pageHeight="850" background="#ffffff">
            <root>
                <mxCell id="0"/>
                <mxCell id="1" parent="0"/>
                
                <!-- Requirements Categories -->
                <mxCell id="vehicle_perf" value="Vehicle Performance&#xa;Requirements" style="rounded=1;whiteSpace=wrap;html=1;fillColor=#dae8fc;strokeColor=#6c8ebf" vertex="1" parent="1">
                    <mxGeometry x="40" y="40" width="160" height="60" as="geometry"/>
                </mxCell>
                
                <mxCell id="safety" value="Safety&#xa;Requirements" style="rounded=1;whiteSpace=wrap;html=1;fillColor=#d5e8d4;strokeColor=#82b366" vertex="1" parent="1">
                    <mxGeometry x="240" y="40" width="160" height="60" as="geometry"/>
                </mxCell>
                
                <mxCell id="manufacturing" value="Manufacturing&#xa;Requirements" style="rounded=1;whiteSpace=wrap;html=1;fillColor=#ffe6cc;strokeColor=#d79b00" vertex="1" parent="1">
                    <mxGeometry x="440" y="40" width="160" height="60" as="geometry"/>
                </mxCell>
                
                <mxCell id="environmental" value="Environmental&#xa;Requirements" style="rounded=1;whiteSpace=wrap;html=1;fillColor=#fff2cc;strokeColor=#d6b656" vertex="1" parent="1">
                    <mxGeometry x="640" y="40" width="160" height="60" as="geometry"/>
                </mxCell>
                
                <mxCell id="cost" value="Cost&#xa;Requirements" style="rounded=1;whiteSpace=wrap;html=1;fillColor=#f8cecc;strokeColor=#b85450" vertex="1" parent="1">
                    <mxGeometry x="840" y="40" width="160" height="60" as="geometry"/>
                </mxCell>

                <!-- Specific Requirements -->
                <mxCell id="vpr_001" value="VPR-001&#xa;Range â‰¥250 miles" style="shape=document;whiteSpace=wrap;html=1;boundedLbl=1;fillColor=#dae8fc;strokeColor=#6c8ebf" vertex="1" parent="1">
                    <mxGeometry x="40" y="160" width="120" height="80" as="geometry"/>
                </mxCell>
                
                <mxCell id="sfr_001" value="SFR-001&#xa;5-Star NCAP Rating" style="shape=document;whiteSpace=wrap;html=1;boundedLbl=1;fillColor=#d5e8d4;strokeColor=#82b366" vertex="1" parent="1">
                    <mxGeometry x="240" y="160" width="120" height="80" as="geometry"/>
                </mxCell>
                
                <mxCell id="mfr_001" value="MFR-001&#xa;40 Units/Hour" style="shape=document;whiteSpace=wrap;html=1;boundedLbl=1;fillColor=#ffe6cc;strokeColor=#d79b00" vertex="1" parent="1">
                    <mxGeometry x="440" y="160" width="120" height="80" as="geometry"/>
                </mxCell>
                
                <mxCell id="env_001" value="ENV-001&#xa;90% CO2 Reduction" style="shape=document;whiteSpace=wrap;html=1;boundedLbl=1;fillColor=#fff2cc;strokeColor=#d6b656" vertex="1" parent="1">
                    <mxGeometry x="640" y="160" width="120" height="80" as="geometry"/>
                </mxCell>
                
                <mxCell id="cst_001" value="CST-001&#xa;Base Cost <$28k" style="shape=document;whiteSpace=wrap;html=1;boundedLbl=1;fillColor=#f8cecc;strokeColor=#b85450" vertex="1" parent="1">
                    <mxGeometry x="840" y="160" width="120" height="80" as="geometry"/>
                </mxCell>

                <!-- Verification Methods -->
                <mxCell id="test_001" value="TEMP-RT-001&#xa;Road Testing" style="shape=process;whiteSpace=wrap;html=1;backgroundOutline=1;fillColor=#e1d5e7;strokeColor=#9673a6" vertex="1" parent="1">
                    <mxGeometry x="40" y="300" width="120" height="60" as="geometry"/>
                </mxCell>
                
                <mxCell id="test_002" value="TEMP-CT-001&#xa;Crash Testing" style="shape=process;whiteSpace=wrap;html=1;backgroundOutline=1;fillColor=#e1d5e7;strokeColor=#9673a6" vertex="1" parent="1">
                    <mxGeometry x="240" y="300" width="120" height="60" as="geometry"/>
                </mxCell>
                
                <mxCell id="test_003" value="TEMP-PR-001&#xa;Production Testing" style="shape=process;whiteSpace=wrap;html=1;backgroundOutline=1;fillColor=#e1d5e7;strokeColor=#9673a6" vertex="1" parent="1">
                    <mxGeometry x="440" y="300" width="120" height="60" as="geometry"/>
                </mxCell>
                
                <mxCell id="test_004" value="TEMP-EN-001&#xa;Life Cycle Analysis" style="shape=process;whiteSpace=wrap;html=1;backgroundOutline=1;fillColor=#e1d5e7;strokeColor=#9673a6" vertex="1" parent="1">
                    <mxGeometry x="640" y="300" width="120" height="60" as="geometry"/>
                </mxCell>
                
                <mxCell id="test_005" value="TEMP-CA-001&#xa;Cost Analysis" style="shape=process;whiteSpace=wrap;html=1;backgroundOutline=1;fillColor=#e1d5e7;strokeColor=#9673a6" vertex="1" parent="1">
                    <mxGeometry x="840" y="300" width="120" height="60" as="geometry"/>
                </mxCell>

                <!-- Status -->
                <mxCell id="status_001" value="Status: Open&#xa;Priority: High&#xa;Owner: Engineering" style="rounded=0;whiteSpace=wrap;html=1;fillColor=#f5f5f5;strokeColor=#666666;fontColor=#333333" vertex="1" parent="1">
                    <mxGeometry x="40" y="420" width="120" height="60" as="geometry"/>
                </mxCell>
                
                <mxCell id="status_002" value="Status: Open&#xa;Priority: High&#xa;Owner: Safety" style="rounded=0;whiteSpace=wrap;html=1;fillColor=#f5f5f5;strokeColor=#666666;fontColor=#333333" vertex="1" parent="1">
                    <mxGeometry x="240" y="420" width="120" height="60" as="geometry"/>
                </mxCell>
                
                <mxCell id="status_003" value="Status: Open&#xa;Priority: High&#xa;Owner: Production" style="rounded=0;whiteSpace=wrap;html=1;fillColor=#f5f5f5;strokeColor=#666666;fontColor=#333333" vertex="1" parent="1">
                    <mxGeometry x="440" y="420" width="120" height="60" as="geometry"/>
                </mxCell>
                
                <mxCell id="status_004" value="Status: Open&#xa;Priority: High&#xa;Owner: Environmental" style="rounded=0;whiteSpace=wrap;html=1;fillColor=#f5f5f5;strokeColor=#666666;fontColor=#333333" vertex="1" parent="1">
                    <mxGeometry x="640" y="420" width="120" height="60" as="geometry"/>
                </mxCell>
                
                <mxCell id="status_005" value="Status: Open&#xa;Priority: High&#xa;Owner: Finance" style="rounded=0;whiteSpace=wrap;html=1;fillColor=#f5f5f5;strokeColor=#666666;fontColor=#333333" vertex="1" parent="1">
                    <mxGeometry x="840" y="420" width="120" height="60" as="geometry"/>
                </mxCell>

                <!-- Connections -->
                <!-- Categories to Requirements -->
                <mxCell id="2" value="" style="endArrow=classic;html=1;exitX=0.5;exitY=1;exitDx=0;exitDy=0;entryX=0.5;entryY=0;entryDx=0;entryDy=0;" edge="1" parent="1" source="vehicle_perf" target="vpr_001">
                    <mxGeometry width="50" height="50" relative="1" as="geometry"/>
                </mxCell>
                <mxCell id="3" value="" style="endArrow=classic;html=1;exitX=0.5;exitY=1;exitDx=0;exitDy=0;entryX=0.5;entryY=0;entryDx=0;entryDy=0;" edge="1" parent="1" source="safety" target="sfr_001">
                    <mxGeometry width="50" height="50" relative="1" as="geometry"/>
                </mxCell>
                <mxCell id="4" value="" style="endArrow=classic;html=1;exitX=0.5;exitY=1;exitDx=0;exitDy=0;entryX=0.5;entryY=0;entryDx=0;entryDy=0;" edge="1" parent="1" source="manufacturing" target="mfr_001">
                    <mxGeometry width="50" height="50" relative="1" as="geometry"/>
                </mxCell>
                <mxCell id="5" value="" style="endArrow=classic;html=1;exitX=0.5;exitY=1;exitDx=0;exitDy=0;entryX=0.5;entryY=0;entryDx=0;entryDy=0;" edge="1" parent="1" source="environmental" target="env_001">
                    <mxGeometry width="50" height="50" relative="1" as="geometry"/>
                </mxCell>
                <mxCell id="6" value="" style="endArrow=classic;html=1;exitX=0.5;exitY=1;exitDx=0;exitDy=0;entryX=0.5;entryY=0;entryDx=0;entryDy=0;" edge="1" parent="1" source="cost" target="cst_001">
                    <mxGeometry width="50" height="50" relative="1" as="geometry"/>
                </mxCell>

                <!-- Requirements to Tests -->
                <mxCell id="7" value="" style="endArrow=classic;html=1;exitX=0.5;exitY=1;exitDx=0;exitDy=0;entryX=0.5;entryY=0;entryDx=0;entryDy=0;" edge="1" parent="1" source="vpr_001" target="test_001">
                    <mxGeometry width="50" height="50" relative="1" as="geometry"/>
                </mxCell>
                <mxCell id="8" value="" style="endArrow=classic;html=1;exitX=0.5;exitY=1;exitDx=0;exitDy=0;entryX=0.5;entryY=0;entryDx=0;entryDy=0;" edge="1" parent="1" source="sfr_001" target="test_002">
                    <mxGeometry width="50" height="50" relative="1" as="geometry"/>
                </mxCell>
                <mxCell id="9" value="" style="endArrow=classic;html=1;exitX=0.5;exitY=1;exitDx=0;exitDy=0;entryX=0.5;entryY=0;entryDx=0;entryDy=0;" edge="1" parent="1" source="mfr_001" target="test_003">
                    <mxGeometry width="50" height="50" relative="1" as="geometry"/>
                </mxCell>
                <mxCell id="10" value="" style="endArrow=classic;html=1;exitX=0.5;exitY=1;exitDx=0;exitDy=0;entryX=0.5;entryY=0;entryDx=0;entryDy=0;" edge="1" parent="1" source="env_001" target="test_004">
                    <mxGeometry width="50" height="50" relative="1" as="geometry"/>
                </mxCell>
                <mxCell id="11" value="" style="endArrow=classic;html=1;exitX=0.5;exitY=1;exitDx=0;exitDy=0;entryX=0.5;entryY=0;entryDx=0;entryDy=0;" edge="1" parent="1" source="cst_001" target="test_005">
                    <mxGeometry width="50" height="50" relative="1" as="geometry"/>
                </mxCell>

                <!-- Tests to Status -->
                <mxCell id="12" value="" style="endArrow=classic;html=1;exitX=0.5;exitY=1;exitDx=0;exitDy=0;entryX=0.5;entryY=0;entryDx=0;entryDy=0;" edge="1" parent="1" source="test_001" target="status_001">
                    <mxGeometry width="50" height="50" relative="1" as="geometry"/>
                </mxCell>
                <mxCell id="13" value="" style="endArrow=classic;html=1;exitX=0.5;exitY=1;exitDx=0;exitDy=0;entryX=0.5;entryY=0;entryDx=0;entryDy=0;" edge="1" parent="1" source="test_002" target="status_002">
                    <mxGeometry width="50" height="50" relative="1" as="geometry"/>
                </mxCell>
                <mxCell id="14" value="" style="endArrow=classic;html=1;exitX=0.5;exitY=1;exitDx=0;exitDy=0;entryX=0.5;entryY=0;entryDx=0;entryDy=0;" edge="1" parent="1" source="test_003" target="status_003">
                    <mxGeometry width="50" height="50" relative="1" as="geometry"/>
                </mxCell>
                <mxCell id="15" value="" style="endArrow=classic;html=1;exitX=0.5;exitY=1;exitDx=0;exitDy=0;entryX=0.5;entryY=0;entryDx=0;entryDy=0;" edge="1" parent="1" source="test_004" target="status_004">
                    <mxGeometry width="50" height="50" relative="1" as="geometry"/>
                </mxCell>
                <mxCell id="16" value="" style="endArrow=classic;html=1;exitX=0.5;exitY=1;exitDx=0;exitDy=0;entryX=0.5;entryY=0;entryDx=0;entryDy=0;" edge="1" parent="1" source="test_005" target="status_005">
                    <mxGeometry width="50" height="50" relative="1" as="geometry"/>
                </mxCell>

            </root>
        </mxGraphModel>
    </diagram>
</mxfile>
